<?xml version="1.0" encoding="utf-8"?>
<!-- Generator: Adobe Illustrator 16.0.4, SVG Export Plug-In . SVG Version: 6.00 Build 0)  -->
<!DOCTYPE svg PUBLIC "-//W3C//DTD SVG 1.1//EN" "http://www.w3.org/Graphics/SVG/1.1/DTD/svg11.dtd">
<svg version="1.1" id="Layer_1" xmlns="http://www.w3.org/2000/svg" xmlns:xlink="http://www.w3.org/1999/xlink" x="0px" y="0px"
	 width="100px" height="100px" viewBox="0 0 100 100" style="enable-background:new 0 0 100 100;" xml:space="preserve">
<circle style="stroke:#000000;stroke-miterlimit:10;" cx="50.116" cy="48.698" r="45.814"/>
<rect x="28.5" y="34.5" style="fill:#FFFFFF;stroke:#FFFFFF;stroke-miterlimit:10;" width="42" height="29"/>
<path d="M24.887,37.084c4.559,3.569,9.578,6.28,14.695,8.953c3.254,1.7,7.832,5.82,11.765,4.826
c3.623-0.917,7.264-4.03,10.512-5.835c4.548-2.528,8.441-6.082,12.563-9.217c4.183-3.183-2.11-5.676-5.094-3.406
c-3.017,2.295-5.926,4.726-8.997,6.95c-3.102,2.245-6.73,3.534-9.771,5.884c0.343-0.107,0.687-0.214,1.03-0.321
c-0.992-0.571-1.992-1.126-3-1.667c-2.007-1.095-4.047-2.13-6.071-3.194c-4.092-2.152-8.013-4.508-11.657-7.361
C28.234,30.637,21.423,34.372,24.887,37.084L24.887,37.084z"/>
</svg>
