<svg id="Layer_1" data-name="Layer 1" xmlns="http://www.w3.org/2000/svg" viewBox="0 0 92.63 92.63"><defs><style>.cls-1{stroke:#000;}.cls-1,.cls-2{stroke-miterlimit:10;}.cls-2{fill:#fff;stroke:#fff;stroke-width:0.25px;}</style></defs><title>linkedin</title><circle class="cls-1" cx="46.31" cy="46.31" r="45.81"/><path class="cls-2" d="M39,30.25a4.58,4.58,0,0,1-4.92,4.56,4.59,4.59,0,1,1,.06-9.18A4.57,4.57,0,0,1,39,30.25Zm-9.42,37.5V38.41h9.12V67.75Z" transform="translate(-5.38 -3.83)"/><path class="cls-2" d="M46,47.77c0-3.66-.12-6.78-.24-9.36h7.92l.42,4h.18a10.74,10.74,0,0,1,9.06-4.68c6,0,10.5,4,10.5,12.6v17.4H64.71V51.49c0-3.78-1.32-6.36-4.62-6.36a4.87,4.87,0,0,0-4.62,3.42,6.26,6.26,0,0,0-.36,2.28V67.75H46Z" transform="translate(-5.38 -3.83)"/></svg>