<?xml version="1.0" encoding="utf-8"?>
<!-- Generator: Adobe Illustrator 16.0.4, SVG Export Plug-In . SVG Version: 6.00 Build 0)  -->
<!DOCTYPE svg PUBLIC "-//W3C//DTD SVG 1.1//EN" "http://www.w3.org/Graphics/SVG/1.1/DTD/svg11.dtd">
<svg version="1.1" id="Layer_1" xmlns="http://www.w3.org/2000/svg" xmlns:xlink="http://www.w3.org/1999/xlink" x="0px" y="0px"
	 width="100px" height="100px" viewBox="0 0 100 100" style="enable-background:new 0 0 100 100;" xml:space="preserve">
<circle style="stroke:#000000;stroke-miterlimit:10;" cx="51.116" cy="48.488" r="45.814"/>
<g>
	<path style="fill:#FFFFFF;" d="M68.125,50c2.5-1.75,7.125-1.125,3.625-4.625c-1.25-1.25-3-1.625-4.25-3.125
		c-1.25-1.625-1.75-3.875-2.625-5.75c-2.25-4.375-6.31-2.92-9.375-0.5c-4.75,3.75-1.75,8.875-8.375,6.75
		c-3.875-1.25-8.625-5-12.5-6.125c0.25,2.375,2.75,7,4,8.875c1.875,2.875,4,5.625,4.75,9c1.5,6.625-9.875,0.375-14.125,2.125
		c5.828,5.485,17.149,10.316,22.5,7.5C56.5,61.625,65.125,53.875,68.125,50"/>
	<g>
		<path style="fill:#FFFFFF;" d="M68.564,50.614c1.127-0.633,7.323-1.892,4.946-4.654c-2.625-3.052-5.461-3.999-7.066-8.258
			c-0.682-1.808-1.838-4.168-3.995-4.556c-3.558-0.64-7.691,1.423-9.584,4.517c-0.531,0.868-0.945,1.707-1.325,2.649
			c-1.155,2.868-4.3,1.654-6.282,0.745c-3.455-1.586-6.468-3.863-10.084-5.116c-0.6-0.208-1.669,0.152-1.515,0.942
			c1.308,6.707,6.856,11.436,8.75,17.875c1.045,3.555-6.38,1.374-7.627,1.146c-1.91-0.351-3.841-0.548-5.722,0.013
			c-0.562,0.167-1.112,0.786-0.548,1.289c5.661,5.047,14.694,10.095,22.535,8.01c3.348-0.891,6.592-4.115,9.15-6.253
			c3.127-2.613,6.177-5.472,8.745-8.645c0.782-0.966-1.044-1.366-1.635-0.636c-4.158,5.138-9.553,9.875-15.172,13.365
			c-6.7,4.162-17.212-2.604-22.147-7.003c-0.183,0.43-0.366,0.859-0.548,1.289C33.646,56.08,40.71,60.88,44.065,57
			c1.693-1.957-0.829-5.895-1.763-7.625c-2.348-4.355-5.732-7.986-6.712-13.008c-0.505,0.314-1.01,0.628-1.515,0.942
			c2.979,1.032,15.075,10.336,18.228,5.484c0.627-0.965,1.007-1.99,1.437-3.058c0.837-2.078,2.493-3.436,4.359-4.538
			c4.849-2.863,6.549,3.542,7.62,5.991c0.68,1.556,1.772,2.405,3.167,3.299c1.398,0.896,3.293,3.144,0.918,3.918
			c-0.767,0.25-1.421,0.587-2.119,0.98C66.544,50.027,67.575,51.17,68.564,50.614L68.564,50.614z"/>
	</g>
</g>
</svg>
